HIERARCHY
ROOT Hips
{
  OFFSET 2.26061 22.2878 23.7974
  CHANNELS 6 Xposition Yposition Zposition Zrotation Xrotation Yrotation
  JOINT LeftUpLeg
  {
    OFFSET 8.64259 1.95398 -2.38835
    CHANNELS 3 Zrotation Xrotation Yrotation
    JOINT LeftLeg
    {
      OFFSET 43.7702 0 0
      CHANNELS 3 Zrotation Xrotation Yrotation
      JOINT LeftFoot
      {
        OFFSET 40.6238 0 0
        CHANNELS 3 Zrotation Xrotation Yrotation
        JOINT LeftToeBase
        {
          OFFSET 12.7242 0 0
          CHANNELS 3 Zrotation Xrotation Yrotation
          End Site
          {
            OFFSET 0 0 0
          }
        }
      }
    }
  }
  JOINT RightUpLeg
  {
    OFFSET -8.2249 1.95398 -2.59336
    CHANNELS 3 Zrotation Xrotation Yrotation
    JOINT RightLeg
    {
      OFFSET 43.5653 0 0
      CHANNELS 3 Zrotation Xrotation Yrotation
      JOINT RightFoot
      {
        OFFSET 40.6238 0 0
        CHANNELS 3 Zrotation Xrotation Yrotation
        JOINT RightToeBase
        {
          OFFSET 12.7242 0 0
          CHANNELS 3 Zrotation Xrotation Yrotation
          End Site
          {
            OFFSET 0 0 0
          }
        }
      }
    }
  }
  JOINT Spine
  {
    OFFSET 0.165834 0.87714 6.61349
    CHANNELS 3 Zrotation Xrotation Yrotation
    JOINT Spine1
    {
      OFFSET 7.38963 1.71661e-005 0
      CHANNELS 3 Zrotation Xrotation Yrotation
      JOINT Spine2
      {
        OFFSET 11.9445 1.14441e-005 0
        CHANNELS 3 Zrotation Xrotation Yrotation
        JOINT Spine3
        {
          OFFSET 14.7254 4.19617e-005 0
          CHANNELS 3 Zrotation Xrotation Yrotation
          JOINT Spine4
          {
            OFFSET 10.9679 0 0
            CHANNELS 3 Zrotation Xrotation Yrotation
            JOINT RightShoulder
            {
              OFFSET 2.46616 -1.6653 3.69651
              CHANNELS 3 Zrotation Xrotation Yrotation
              JOINT RightArm
              {
                OFFSET 13.0012 0 0
                CHANNELS 3 Zrotation Xrotation Yrotation
                JOINT RightForeArm
                {
                  OFFSET 28.7848 1.52588e-005 0
                  CHANNELS 3 Zrotation Xrotation Yrotation
                  JOINT RightHand
                  {
                    OFFSET 26.5688 1.52588e-005 0
                    CHANNELS 3 Zrotation Xrotation Yrotation
                    End Site
                    {
                      OFFSET 0 0 0
                    }
                  }
                }
              }
            }
            JOINT LeftShoulder
            {
              OFFSET 2.38034 -1.29275 -3.7523
              CHANNELS 3 Zrotation Xrotation Yrotation
              JOINT LeftArm
              {
                OFFSET 16.3182 6.10351e-005 0
                CHANNELS 3 Zrotation Xrotation Yrotation
                JOINT LeftForeArm
                {
                  OFFSET 27.0901 0 0
                  CHANNELS 3 Zrotation Xrotation Yrotation
                  JOINT LeftHand
                  {
                    OFFSET 24.5451 1.52588e-005 0
                    CHANNELS 3 Zrotation Xrotation Yrotation
                    End Site
                    {
                      OFFSET 0 0 0
                    }
                  }
                }
              }
            }
            JOINT Neck
            {
              OFFSET 5.0226 -0.0266342 0
              CHANNELS 3 Zrotation Xrotation Yrotation
              JOINT Head
              {
                OFFSET 6.69363 2.86102e-005 0
                CHANNELS 3 Zrotation Xrotation Yrotation
                End Site
                {
                  OFFSET 0 0 0
                }
              }
            }
          }
        }
      }
    }
  }
}
MOTION
Frames:	15
Frame Time:	0.0416667
37.9549 97.3522 -252.249 -68.7315 -84.7062 -68.3632 -173.64 8.1462 87.7576 -16.7776 12.516 -0.0810396 66.7083 8.55013 8.60383 28.7317 -0.287828 2.40978 175.178 5.97198 92.0402 -14.2508 -4.96218 -2.02768 68.2512 -3.86654 -2.06359 29.4832 0.242656 -3.56169 0.0168448 6.96568 -89.8862 12.9424 0.088107 0.216966 1.27143 0.0975616 0.212877 -21.2636 0.0188166 0.233418 -1.25094 0.0188208 0.233415 93.0912 -54.7784 -95.2707 22.945 -6.77153 1.11053 -14.5091 -32.0254 -45.4679 -2.32353 -0.778266 5.80429 -104.342 -53.8347 59.368 -17.7133 11.9427 3.08655 3.05993 10.9037 -30.9526 9.83297 0.66512 2.68888 10.8422 1.62628 -0.925107 -2.64818 1.8185 2.74103 
38.3385 97.1232 -251.863 -69.9433 -85.5687 -69.4746 -174.118 8.23302 87.3364 -18.3928 12.2289 0.276672 67.7515 10.4237 8.77345 28.4167 -0.646337 3.29744 174.53 5.67949 91.6595 -15.3301 -4.07837 -1.66149 69.5263 -3.99478 -2.06669 29.5065 0.233063 -3.38469 -0.0250749 7.01088 -89.9857 12.8521 -0.0429207 0.0337578 1.18113 -0.0413922 0.0356061 -21.354 -0.0510849 0.0193032 -1.34139 -0.0510841 0.0192969 92.0445 -52.8208 -97.148 24.18 -6.6954 2.85927 -15.6029 -30.5586 -47.6193 -1.94868 -0.77631 7.08146 -105.212 -54.6049 58.491 -17.8009 12.4634 3.18622 2.32625 10.1537 -30.7551 10.1819 0.674026 2.56804 9.54593 1.98413 2.24187 0.152358 1.49353 -0.46661 
38.8693 96.7631 -251.112 -64.0318 -86.3755 -63.1016 -174.504 8.74531 87.2333 -20.4011 12.881 0.654917 69.0837 11.8664 9.71361 28.4591 -0.644637 3.60287 174.679 6.3974 91.8249 -17.8298 -3.24161 -1.65548 71.1467 -4.65613 -2.36134 29.4799 0.241494 -3.51514 -0.0466392 7.04748 -90.0072 12.7788 -0.0959923 -0.00294077 1.1079 -0.0960283 0.00127758 -21.4273 -0.0906791 -0.0316549 -1.41464 -0.0906689 -0.0316544 92.5138 -53.0711 -96.4064 24.12 -6.3983 2.59661 -13.3992 -29.0351 -46.3795 -2.32896 -0.778505 7.08233 -104.941 -54.2896 58.7323 -18.4617 12.9678 3.4852 2.54819 10.4108 -31.4785 9.92124 0.719006 3.10532 9.44278 1.75093 1.21105 1.29553 1.48667 0.144693 
39.3951 96.2386 -250.522 -67.0117 -86.1495 -66.0424 -174.547 9.46545 86.9242 -23.1079 12.0052 0.693361 70.8012 12.3692 8.40361 29.058 -0.153093 3.73747 176.261 10.1328 92.3989 -25.48 -0.554434 -2.70261 71.5972 -5.32231 -2.70234 33.1568 0.325292 -3.80625 0.0186864 7.13693 -89.951 12.5996 0.0605629 0.0905515 0.928671 0.0644898 0.0878007 -21.6064 0.0305479 0.10457 -1.59377 0.0305489 0.104571 92.6592 -53.0479 -96.1946 24.325 -6.29753 2.37999 -10.8748 -27.2854 -44.7836 -3.49927 -0.758947 5.41792 -105.053 -54.1424 58.5201 -18.3367 13.4803 3.71694 3.20674 11.1586 -32.5088 8.68601 0.567397 2.43055 9.33617 1.48362 0.643109 2.78115 1.33339 0.0827216 
39.6621 95.9565 -249.478 -68.1408 -85.6796 -68.5164 -174.646 8.61426 85.6178 -22.7573 11.4587 0.230609 70.7397 12.1216 7.71352 30.3815 0.873324 4.83937 177.65 16.9073 91.879 -36.9684 0.40126 -3.82443 70.318 -5.06786 -2.63718 37.6715 0.357549 -6.4947 -0.0280685 7.26906 -89.7139 12.3352 0.0800649 0.562154 0.664154 0.10473 0.558083 -21.87 -0.0925775 0.560231 -1.8574 -0.0925879 0.560221 92.1817 -53.0961 -96.8948 24.5873 -6.55795 2.73994 -11.3466 -27.4553 -45.671 -5.28908 -0.826471 4.54331 -104.672 -54.0221 58.9914 -17.4082 13.906 3.43652 3.20449 10.3872 -34.3246 8.95161 0.678897 3.37908 10.0738 1.76633 0.84554 4.3195 1.57332 0.203704 
40.2963 96.03 -247.584 -48.9779 -86.2213 -47.8081 -174.147 7.94198 86.8925 -22.0077 12.7336 0.322497 71.8632 13.1352 8.18282 29.4883 0.352803 2.22542 177.608 21.2177 93.1334 -37.7821 -0.607222 -2.72645 69.4269 -4.76076 -2.52211 38.4094 0.317461 -8.34726 -0.155155 7.26956 -89.8806 12.335 -0.251555 0.267078 0.664005 -0.239559 0.277886 -21.8712 -0.320195 0.179128 -1.85859 -0.320204 0.179121 92.1699 -53.2939 -96.8769 24.8023 -6.26786 4.38858 -11.7109 -26.5098 -46.5921 -5.14241 -0.84036 5.03812 -105.651 -54.1331 57.7009 -16.2495 13.7502 2.72086 3.40969 10.1354 -34.9574 7.04461 0.465311 2.38416 9.83512 1.81165 1.11131 4.3026 1.63237 1.09381 
40.7492 96.0613 -245.117 -33.3157 -86.3801 -31.2035 -173.922 6.15898 87.6465 -20.2938 14.1448 0.551305 71.8738 13.4698 9.59951 30.6614 1.40181 1.10254 177.682 23.6993 93.7432 -31.3009 -0.67684 -2.06937 67.1704 -3.85382 -2.10505 38.6066 0.326533 -7.65534 -0.246844 7.29229 -90.019 12.2895 -0.499538 0.0179272 0.618685 -0.498266 0.0398858 -21.9172 -0.481835 -0.133038 -1.90457 -0.481833 -0.13304 92.4127 -53.3207 -96.5124 24.6662 -5.98782 5.87964 -12.1904 -26.8068 -46.0329 -5.45706 -0.876022 5.13869 -105.865 -53.8648 57.299 -15.7906 13.6941 1.87965 3.66026 9.31599 -36.7606 7.69928 0.476133 2.06325 9.71526 1.94995 1.39651 3.70908 1.76683 1.94569 
40.7662 95.693 -242.2 -19.863 -86.6132 -18.285 -173.282 3.90802 87.6519 -19.3162 15.7252 -0.0265157 72.6431 14.2452 9.93213 32.7909 2.98924 3.89222 177.653 25.5132 93.1888 -24.0106 -2.62538 -2.00687 65.7827 -3.25494 -1.79968 37.8059 0.337831 -7.77823 -0.398207 7.39399 -89.9919 12.0865 -0.787752 0.102968 0.415803 -0.782455 0.137537 -22.1212 -0.782276 -0.138553 -2.10858 -0.782283 -0.138559 92.1156 -53.7238 -96.8791 23.7438 -5.8513 6.15489 -9.64635 -28.2864 -42.9137 -5.61214 -0.92796 5.8833 -105.481 -53.7766 57.7864 -14.5396 14.3137 0.190665 4.26867 9.45701 -39.0378 9.35606 0.622097 2.54746 9.98561 2.15084 1.34543 3.44491 1.97803 2.14003 
40.8231 94.9626 -238.42 -40.2896 -86.0751 -39.3293 -173.027 0.919091 87.0008 -19.028 13.62 -0.224776 74.1823 15.3741 9.53441 33.0882 3.32751 1.68802 177.768 26.5299 93.0292 -17.6573 -4.45849 -1.97641 63.4209 -2.35617 -1.31988 37.8541 0.341508 -7.48483 -0.294582 7.48356 -89.9654 11.9071 -0.569411 0.130256 0.236299 -0.563132 0.155184 -22.2999 -0.582232 -0.0469106 -2.28722 -0.582238 -0.0469109 92.519 -54.4085 -96.1676 23.0375 -4.82174 6.57872 -10.1171 -28.929 -42.3142 -2.91709 -0.796276 7.05021 -105.919 -53.6565 57.1386 -13.4106 14.7903 -1.22355 4.02137 9.23864 -39.5499 9.64643 0.586272 2.05249 8.70812 2.26065 1.45977 4.77704 2.11118 2.21326 
40.7885 94.0597 -233.51 -23.8712 -85.9405 -22.6031 -172.925 -0.226917 87.3937 -21.4202 16.6207 0.193853 73.0177 15.5299 12.6936 37.3698 6.72208 -1.02506 177.491 28.1063 93.2682 -16.5382 -3.47568 -1.39537 62.7283 -2.06495 -1.15301 37.276 0.356249 -6.93221 -0.497726 7.46717 -90.0861 11.9392 -1.03019 -0.0605302 0.268646 -1.03185 -0.0151364 -22.2695 -0.964357 -0.367365 -2.25682 -0.964356 -0.367372 92.6109 -55.0297 -95.9286 21.6681 -4.32077 6.49697 -9.75224 -29.9902 -39.5722 -1.29135 -0.659022 5.61011 -105.984 -53.6724 57.0569 -12.7448 15.106 -2.26628 3.46207 9.69624 -38.3646 10.8062 0.788484 3.20673 8.42753 2.64428 0.767686 4.26695 2.66233 2.92662 
40.5021 93.3527 -227.547 -34.0008 -85.7648 -32.3796 -173.147 -2.43621 88.3258 -25.6626 18.5508 1.14176 69.9746 12.501 12.8959 44.8976 12.6236 0.0644017 178.612 30.2631 93.9646 -25.5365 -4.63514 -2.0027 61.6298 -1.88867 -1.06741 36.861 0.374196 -6.89916 -0.565104 7.48409 -90.2357 11.9057 -1.23466 -0.337227 0.2353 -1.24831 -0.28256 -22.3035 -1.07623 -0.692742 -2.29089 -1.07623 -0.692747 92.6706 -55.4742 -95.7686 20.577 -3.67186 6.87202 -11.42 -30.9854 -40.6563 -1.36747 -0.701847 6.27526 -106.309 -53.5262 56.5524 -13.8082 15.4544 -2.02045 2.36225 10.4238 -35.2085 11.395 0.953486 4.26896 8.67599 3.16101 0.689092 3.22239 3.20289 3.69354 
39.857 92.9454 -220.455 9.00039 -86.0354 12.5856 -173.346 0.97158 91.1253 -36.271 22.1151 2.86041 64.6192 6.65248 8.28688 52.1089 18.934 3.33535 178.481 30.4796 95.919 -34.3791 -0.431024 -1.60901 65.8521 -3.28789 -1.81039 29.8751 0.266779 -4.40491 -1.02195 7.40245 -90.5661 12.0621 -2.29895 -0.876833 0.392942 -2.3353 -0.77476 -22.1519 -1.92916 -1.52737 -2.13922 -1.92916 -1.52738 92.672 -55.9623 -95.6866 20.0051 -3.59559 6.30448 -9.64022 -30.282 -39.2289 -2.33425 -0.750675 6.38793 -106.593 -53.0886 55.9776 -16.276 14.9671 0.694451 1.99452 10.9271 -32.5384 10.745 0.94711 4.65393 8.18965 3.89922 -0.37822 2.88753 4.18291 4.79664 
39.0666 92.6406 -214.061 -25.7135 -87.1483 -22.2491 -172.846 7.84356 93.6249 -51.5374 21.4582 1.67401 47.4639 -7.3806 -3.24343 49.7629 19.0115 12.6824 179.947 27.4232 97.438 -39.3582 0.386681 -3.0073 71.2088 -5.01977 -2.56645 29.0364 0.159569 -2.3598 -0.802327 7.4176 -90.5196 12.0323 -1.84031 -0.835533 0.362441 -1.8753 -0.753708 -22.1781 -1.50413 -1.35005 -2.16546 -1.50414 -1.35006 92.8283 -55.6128 -95.5183 21.3739 -3.81606 6.71625 -10.0287 -29.0879 -40.235 -2.48939 -0.754916 6.62049 -105.61 -53.0903 57.3235 -18.3305 15.6844 2.83868 1.3024 11.7511 -30.649 12.5262 1.3845 6.87539 7.21143 3.48381 -0.863217 1.775 3.76865 3.86185 
38.3373 93.6068 -207.778 -39.8472 -87.6117 -37.5115 -171.672 18.5065 92.9968 -62.1592 16.7688 0.271589 49.3258 -5.327 0.381914 44.0553 13.3991 11.7779 179.573 21.0442 96.8819 -37.4594 -0.280329 -3.4184 74.8152 -6.30755 -3.02102 29.4751 0.169495 -2.29683 -0.548767 7.55042 -90.3976 11.7707 -1.27823 -0.658284 0.100302 -1.30596 -0.60139 -22.4371 -1.0213 -1.01202 -2.42446 -1.0213 -1.01203 91.8389 -54.2574 -97.1884 22.7027 -4.43328 5.88936 -11.0718 -28.3427 -42.2885 -2.22332 -0.694062 5.32218 -106.388 -53.5097 56.437 -19.5255 14.2139 3.90566 0.732148 10.601 -28.9524 15.869 1.69663 6.7553 7.0945 1.99202 -0.578281 2.56247 2.20859 2.63188 
37.5073 95.2321 -201.389 -54.1081 -86.5478 -53.8237 -169.83 25.238 90.652 -53.7513 12.8605 -1.8599 54.9862 -1.42019 3.61872 46.1913 15.3788 11.4368 179.777 13.427 95.6433 -30.7339 -1.75772 -4.63553 75.1068 -6.7883 -3.22736 30.805 0.209776 -2.41507 -0.14963 7.52485 -90.0828 11.8237 -0.336452 -0.128966 0.152703 -0.341793 -0.114033 -22.3824 -0.282136 -0.224114 -2.36973 -0.282139 -0.224119 92.0556 -53.9343 -96.9294 22.7205 -5.37106 4.10823 -11.7171 -28.1649 -44.517 -2.76259 -0.732742 5.53561 -105.352 -53.4388 57.8224 -20.5174 13.9233 4.94805 1.68951 11.4484 -29.3815 13.2924 1.47191 6.87697 5.71792 0.855148 -0.321976 2.98563 0.973638 1.28563 
